<svg width="125" height="120" viewBox="0 0 125 120" fill="none" xmlns="http://www.w3.org/2000/svg">
<rect x="15.3142" y="9.58844" width="79.6329" height="110.261" rx="3" fill="#DFA40B"/>
<rect x="39.8164" y="0.400024" width="30.255" height="10.8144" fill="#DFA40B"/>
<path d="M14.2914 45.6097L109.611 27.581L110.558 92.1118L14.2914 105.761L14.2914 45.6097Z" fill="#DADADA"/>
<path d="M18.9126 48.6927L30.1055 46.3305L30.0223 52.8186L18.8294 55.1781L18.9126 48.6927Z" fill="#DFA40B"/>
<path d="M33.5731 46.0849L44.9997 44.0955L44.9997 50.9514L33.5731 52.747L33.5731 46.0849Z" fill="#DFA40B"/>
<path d="M48.7006 43.9223L60.1272 41.9329L60.1272 48.7888L48.7006 50.5844L48.7006 43.9223Z" fill="#DFA40B"/>
<path d="M63.8284 41.1103L75.255 39.1209L75.255 45.9768L63.8284 47.7724L63.8284 41.1103Z" fill="#DFA40B"/>
<path d="M78.9559 37.9576L90.3825 35.9681L90.3825 42.8241L78.9559 44.6197L78.9559 37.9576Z" fill="#DFA40B"/>
<path d="M94.0832 34.9295L105.51 32.9401L105.51 39.796L94.0833 41.5917L94.0832 34.9295Z" fill="#DFA40B"/>
</svg>
